<?xml version="1.0" encoding="UTF-8"?>
<svg id="Layer_2" data-name="Layer 2" xmlns="http://www.w3.org/2000/svg" viewBox="0 0 60 60">
  <defs>
    <style>
      .cls-1 {
        fill: #001e50;
      }
    </style>
  </defs>
  <path class="cls-1" d="M30.22,2.57c-.71-.05-1.33-.07-1.92-.07-6.97,0-13.51,2.82-18.42,7.93-4.96,5.16-7.68,12.11-7.68,19.57,0,15.16,11.71,27.5,26.1,27.5,6.52,0,12.1-2.17,16.2-6.3v5.01h13.29v-26.23L30.4,2.58h-.19ZM30,44.71c-8.41,0-14.51-6.18-14.51-14.71s6.1-14.71,14.51-14.71,14.51,6.18,14.51,14.71-6.1,14.71-14.51,14.71"/>
  <rect class="cls-1" x="44.5" y="3.4" width="13.29" height="13.29"/>
</svg>